<mxfile host="app.diagrams.net" modified="2021-06-24T07:09:17.236Z" agent="5.0 (Windows NT 10.0; Win64; x64) AppleWebKit/537.36 (KHTML, like Gecko) Chrome/91.0.4472.114 Safari/537.36" etag="nx__9w5N_REMqAYOvr2B" version="14.7.6" type="github">
  <diagram id="6a731a19-8d31-9384-78a2-239565b7b9f0" name="Page-1">
    <mxGraphModel dx="1422" dy="794" grid="1" gridSize="10" guides="1" tooltips="1" connect="1" arrows="1" fold="1" page="1" pageScale="1" pageWidth="1169" pageHeight="827" background="#ffffff" math="0" shadow="0">
      <root>
        <mxCell id="0" />
        <mxCell id="1" parent="0" />
        <mxCell id="1745" value="" style="edgeStyle=none;rounded=0;jumpStyle=none;html=1;shadow=0;labelBackgroundColor=none;startArrow=none;startFill=0;endArrow=classic;endFill=1;jettySize=auto;orthogonalLoop=1;strokeWidth=3;fontFamily=Helvetica;fontSize=16;fontColor=#23445D;spacing=5;entryX=0.5;entryY=0;entryDx=0;entryDy=0;strokeColor=#EC7C31;" parent="1" source="1764" target="1749" edge="1">
          <mxGeometry relative="1" as="geometry">
            <mxPoint x="760" y="270" as="sourcePoint" />
          </mxGeometry>
        </mxCell>
        <mxCell id="1747" value="" style="edgeStyle=none;rounded=0;jumpStyle=none;html=1;shadow=0;labelBackgroundColor=none;startArrow=none;startFill=0;endArrow=classic;endFill=1;jettySize=auto;orthogonalLoop=1;strokeWidth=3;fontFamily=Helvetica;fontSize=16;fontColor=#23445D;spacing=5;entryX=0.5;entryY=0;entryDx=0;entryDy=0;exitX=0.501;exitY=0.971;exitDx=0;exitDy=0;exitPerimeter=0;strokeColor=#00b050;" parent="1" source="1749" target="1760" edge="1">
          <mxGeometry relative="1" as="geometry">
            <mxPoint x="570" y="724" as="targetPoint" />
            <mxPoint x="570" y="526" as="sourcePoint" />
          </mxGeometry>
        </mxCell>
        <mxCell id="1749" value="排程任務" style="rounded=1;whiteSpace=wrap;html=1;shadow=0;labelBackgroundColor=none;strokeWidth=3;fontFamily=Helvetica;fontSize=18;fontColor=#FFFFFF;align=center;fontStyle=1;spacing=5;arcSize=7;perimeterSpacing=2;fillColor=#00b050;" parent="1" vertex="1">
          <mxGeometry x="495" y="416" width="150" height="60" as="geometry" />
        </mxCell>
        <mxCell id="1750" value="" style="edgeStyle=none;rounded=1;jumpStyle=none;html=1;shadow=0;labelBackgroundColor=none;startArrow=none;startFill=0;jettySize=auto;orthogonalLoop=1;strokeWidth=3;fontFamily=Helvetica;fontSize=14;fontColor=#FFFFFF;spacing=5;fontStyle=1;fillColor=#b0e3e6;exitX=0.5;exitY=1;exitDx=0;exitDy=0;entryX=0.5;entryY=0;entryDx=0;entryDy=0;strokeColor=#0070c0;" parent="1" source="1760" target="1753" edge="1">
          <mxGeometry relative="1" as="geometry">
            <mxPoint x="570" y="536" as="sourcePoint" />
            <Array as="points" />
          </mxGeometry>
        </mxCell>
        <mxCell id="1752" value="" style="edgeStyle=none;rounded=1;jumpStyle=none;html=1;shadow=0;labelBackgroundColor=none;startArrow=none;startFill=0;jettySize=auto;orthogonalLoop=1;strokeWidth=3;fontFamily=Helvetica;fontSize=14;fontColor=#FFFFFF;spacing=5;fontStyle=1;fillColor=#b0e3e6;entryX=1;entryY=0.5;entryDx=0;entryDy=0;exitX=0;exitY=0.5;exitDx=0;exitDy=0;strokeColor=#7030a0;" parent="1" source="96XnuaCD8h3pj_6csJ1h-1809" target="1754" edge="1">
          <mxGeometry relative="1" as="geometry">
            <mxPoint x="490" y="754" as="sourcePoint" />
            <mxPoint x="440" y="718" as="targetPoint" />
          </mxGeometry>
        </mxCell>
        <mxCell id="1753" value="手機端填報" style="rounded=1;whiteSpace=wrap;html=1;shadow=0;labelBackgroundColor=none;strokeWidth=3;fontFamily=Helvetica;fontSize=18;fontColor=#FFFFFF;align=center;spacing=5;fontStyle=1;arcSize=7;perimeterSpacing=2;fillColor=#7030A0;" parent="1" vertex="1">
          <mxGeometry x="495" y="756" width="150" height="60" as="geometry" />
        </mxCell>
        <mxCell id="1754" value="決策報表填報" style="rounded=1;whiteSpace=wrap;html=1;shadow=0;labelBackgroundColor=none;strokeColor=none;strokeWidth=3;fontFamily=Helvetica;fontSize=16;fontColor=#FFFFFF;align=center;spacing=5;fontStyle=0;arcSize=7;perimeterSpacing=2;gradientDirection=west;fillColor=#7030a0;gradientColor=#9A42DB;" parent="1" vertex="1">
          <mxGeometry x="127" y="756" width="150" height="60" as="geometry" />
        </mxCell>
        <mxCell id="1759" value="" style="edgeStyle=none;rounded=0;jumpStyle=none;html=1;shadow=0;labelBackgroundColor=none;startArrow=none;startFill=0;endArrow=classic;endFill=1;jettySize=auto;orthogonalLoop=1;strokeWidth=3;fontFamily=Helvetica;fontSize=14;fontColor=#FFFFFF;spacing=5;strokeColor=#0070c0;" parent="1" source="1760" edge="1">
          <mxGeometry relative="1" as="geometry">
            <mxPoint x="678" y="614" as="targetPoint" />
          </mxGeometry>
        </mxCell>
        <mxCell id="1760" value="水庫水情DashBoard製作" style="rounded=1;whiteSpace=wrap;html=1;shadow=0;labelBackgroundColor=none;strokeWidth=3;fontFamily=Helvetica;fontSize=18;fontColor=#FFFFFF;align=center;spacing=5;fontStyle=1;arcSize=7;perimeterSpacing=2;fillColor=#0070c0;" parent="1" vertex="1">
          <mxGeometry x="495" y="584" width="150" height="60" as="geometry" />
        </mxCell>
        <mxCell id="1761" value="整體框架排版" style="rounded=1;whiteSpace=wrap;html=1;shadow=0;labelBackgroundColor=none;strokeColor=none;strokeWidth=3;fillColor=#64bbe2;fontFamily=Helvetica;fontSize=14;fontColor=#FFFFFF;align=center;spacing=5;arcSize=7;perimeterSpacing=2;" parent="1" vertex="1">
          <mxGeometry x="680" y="581" width="150" height="60" as="geometry" />
        </mxCell>
        <mxCell id="96XnuaCD8h3pj_6csJ1h-1799" value="" style="edgeStyle=orthogonalEdgeStyle;rounded=0;orthogonalLoop=1;jettySize=auto;html=1;" edge="1" parent="1" source="1764">
          <mxGeometry relative="1" as="geometry">
            <mxPoint x="723" y="240" as="targetPoint" />
          </mxGeometry>
        </mxCell>
        <mxCell id="1764" value="水庫資料填報" style="rounded=1;whiteSpace=wrap;html=1;shadow=0;labelBackgroundColor=none;strokeWidth=3;fontFamily=Helvetica;fontSize=18;fontColor=#FFFFFF;align=center;spacing=5;fontStyle=1;arcSize=7;perimeterSpacing=2;fillColor=#EC7C31;" parent="1" vertex="1">
          <mxGeometry x="495" y="210" width="150" height="60" as="geometry" />
        </mxCell>
        <mxCell id="1766" value="" style="edgeStyle=none;rounded=0;jumpStyle=none;html=1;shadow=0;labelBackgroundColor=none;startArrow=none;startFill=0;endArrow=classic;endFill=1;jettySize=auto;orthogonalLoop=1;strokeWidth=3;fontFamily=Helvetica;fontSize=14;fontColor=#FFFFFF;spacing=5;exitX=0;exitY=0.5;exitDx=0;exitDy=0;entryX=0.982;entryY=0.506;entryDx=0;entryDy=0;entryPerimeter=0;strokeColor=#C00000;" parent="1" source="1767" target="9iynGiTtoXiNquHqY1pg-1779" edge="1">
          <mxGeometry relative="1" as="geometry">
            <mxPoint x="400" y="81" as="targetPoint" />
          </mxGeometry>
        </mxCell>
        <mxCell id="1767" value="JSON插件" style="rounded=1;whiteSpace=wrap;html=1;shadow=0;labelBackgroundColor=none;strokeWidth=3;fontFamily=Helvetica;fontSize=18;fontColor=#FFFFFF;align=center;spacing=5;arcSize=7;perimeterSpacing=2;fillColor=#c00000;" parent="1" vertex="1">
          <mxGeometry x="495" y="40" width="150" height="60" as="geometry" />
        </mxCell>
        <mxCell id="1768" value="" style="edgeStyle=none;rounded=0;jumpStyle=none;html=1;shadow=0;labelBackgroundColor=none;startArrow=none;startFill=0;endArrow=classic;endFill=1;jettySize=auto;orthogonalLoop=1;strokeWidth=3;fontFamily=Helvetica;fontSize=14;fontColor=#FFFFFF;spacing=5;entryX=0.5;entryY=0;entryDx=0;entryDy=0;strokeColor=#C00000;" parent="1" source="1767" edge="1" target="1764">
          <mxGeometry relative="1" as="geometry">
            <mxPoint x="580" y="110" as="sourcePoint" />
            <mxPoint x="570" y="210" as="targetPoint" />
            <Array as="points" />
          </mxGeometry>
        </mxCell>
        <mxCell id="1776" value="排程任務&lt;br&gt;定時設定" style="rounded=1;whiteSpace=wrap;html=1;shadow=0;labelBackgroundColor=none;strokeColor=none;strokeWidth=3;fontFamily=Helvetica;fontSize=16;fontColor=#FFFFFF;align=center;spacing=5;fontStyle=0;arcSize=7;perimeterSpacing=2;gradientDirection=west;fillColor=#00b050;gradientColor=#00E367;" parent="1" vertex="1">
          <mxGeometry x="310" y="416" width="150" height="60" as="geometry" />
        </mxCell>
        <mxCell id="1777" value="" style="edgeStyle=none;rounded=1;jumpStyle=none;html=1;shadow=0;labelBackgroundColor=none;startArrow=none;startFill=0;jettySize=auto;orthogonalLoop=1;strokeWidth=3;fontFamily=Helvetica;fontSize=14;fontColor=#FFFFFF;spacing=5;fontStyle=1;fillColor=#b0e3e6;entryX=1;entryY=0.5;entryDx=0;entryDy=0;exitX=0.005;exitY=0.498;exitDx=0;exitDy=0;exitPerimeter=0;strokeColor=#00b050;" parent="1" source="1749" edge="1" target="1776">
          <mxGeometry relative="1" as="geometry">
            <mxPoint x="490" y="446" as="sourcePoint" />
            <mxPoint x="450" y="496" as="targetPoint" />
            <Array as="points">
              <mxPoint x="480" y="446" />
            </Array>
          </mxGeometry>
        </mxCell>
        <mxCell id="1778" value="填報報表製作" style="rounded=1;whiteSpace=wrap;html=1;shadow=0;labelBackgroundColor=none;strokeColor=none;strokeWidth=3;fontFamily=Helvetica;fontSize=16;fontColor=#FFFFFF;align=center;spacing=5;fontStyle=0;arcSize=7;perimeterSpacing=2;gradientDirection=east;fillColor=#ec7c31;gradientColor=#FF8635;" parent="1" vertex="1">
          <mxGeometry x="680" y="210" width="150" height="60" as="geometry" />
        </mxCell>
        <mxCell id="1779" value="" style="edgeStyle=none;rounded=1;jumpStyle=none;html=1;shadow=0;labelBackgroundColor=none;startArrow=none;startFill=0;jettySize=auto;orthogonalLoop=1;strokeWidth=3;fontFamily=Helvetica;fontSize=14;fontColor=#FFFFFF;spacing=5;fontStyle=1;fillColor=#b0e3e6;exitX=1;exitY=0.5;exitDx=0;exitDy=0;strokeColor=#EC7C31;" parent="1" source="1764" edge="1">
          <mxGeometry relative="1" as="geometry">
            <mxPoint x="888.1560283687941" y="433.5" as="sourcePoint" />
            <mxPoint x="680" y="240" as="targetPoint" />
            <Array as="points" />
          </mxGeometry>
        </mxCell>
        <mxCell id="9iynGiTtoXiNquHqY1pg-1779" value="JSON插件&lt;br&gt;設定&amp;amp;安裝" style="rounded=1;whiteSpace=wrap;html=1;shadow=0;labelBackgroundColor=none;strokeColor=none;strokeWidth=3;fontFamily=Helvetica;fontSize=16;fontColor=#FFFFFF;align=center;spacing=5;arcSize=7;perimeterSpacing=2;gradientDirection=east;gradientColor=#FF675C;fillColor=#c00000;" parent="1" vertex="1">
          <mxGeometry x="310" y="40" width="150" height="60" as="geometry" />
        </mxCell>
        <mxCell id="9iynGiTtoXiNquHqY1pg-1784" value="" style="edgeStyle=none;rounded=1;jumpStyle=none;html=1;shadow=0;labelBackgroundColor=none;startArrow=none;startFill=0;jettySize=auto;orthogonalLoop=1;strokeWidth=3;fontFamily=Helvetica;fontSize=14;fontColor=#FFFFFF;spacing=5;fontStyle=1;fillColor=#b0e3e6;exitX=0.5;exitY=0;exitDx=0;exitDy=0;strokeColor=#EC7C31;" parent="1" target="9iynGiTtoXiNquHqY1pg-1804" edge="1" source="1778">
          <mxGeometry relative="1" as="geometry">
            <mxPoint x="832" y="160" as="sourcePoint" />
            <mxPoint x="690" y="200" as="targetPoint" />
            <Array as="points" />
          </mxGeometry>
        </mxCell>
        <mxCell id="9iynGiTtoXiNquHqY1pg-1789" value="平台&amp;amp;郵件通知" style="rounded=1;whiteSpace=wrap;html=1;shadow=0;labelBackgroundColor=none;strokeColor=none;strokeWidth=3;fontFamily=Helvetica;fontSize=16;fontColor=#FFFFFF;align=center;spacing=5;fontStyle=0;arcSize=7;perimeterSpacing=2;gradientDirection=west;fillColor=#00b050;gradientColor=#00E367;" parent="1" vertex="1">
          <mxGeometry x="127" y="370" width="150" height="60" as="geometry" />
        </mxCell>
        <mxCell id="9iynGiTtoXiNquHqY1pg-1790" value="" style="edgeStyle=none;rounded=1;jumpStyle=none;html=1;shadow=0;labelBackgroundColor=none;startArrow=none;startFill=0;jettySize=auto;orthogonalLoop=1;strokeWidth=3;fontFamily=Helvetica;fontSize=14;fontColor=#FFFFFF;spacing=5;fontStyle=1;fillColor=#b0e3e6;exitX=0;exitY=0.031;exitDx=0;exitDy=0;entryX=1;entryY=0.5;entryDx=0;entryDy=0;strokeColor=#00b050;exitPerimeter=0;" parent="1" source="1776" target="9iynGiTtoXiNquHqY1pg-1789" edge="1">
          <mxGeometry relative="1" as="geometry">
            <mxPoint x="279.93000000000006" y="486" as="sourcePoint" />
            <mxPoint x="180" y="496" as="targetPoint" />
            <Array as="points" />
          </mxGeometry>
        </mxCell>
        <mxCell id="9iynGiTtoXiNquHqY1pg-1793" value="" style="edgeStyle=none;rounded=0;jumpStyle=none;html=1;shadow=0;labelBackgroundColor=none;startArrow=none;startFill=0;endArrow=classic;endFill=1;jettySize=auto;orthogonalLoop=1;strokeWidth=3;fontFamily=Helvetica;fontSize=14;fontColor=#FFFFFF;spacing=5;entryX=0.005;entryY=0.514;entryDx=0;entryDy=0;entryPerimeter=0;exitX=0.988;exitY=0.514;exitDx=0;exitDy=0;exitPerimeter=0;strokeColor=#0070c0;" parent="1" source="9iynGiTtoXiNquHqY1pg-1807" target="9iynGiTtoXiNquHqY1pg-1808" edge="1">
          <mxGeometry relative="1" as="geometry">
            <mxPoint x="832" y="517" as="sourcePoint" />
            <mxPoint x="860" y="516" as="targetPoint" />
            <Array as="points" />
          </mxGeometry>
        </mxCell>
        <mxCell id="9iynGiTtoXiNquHqY1pg-1794" value="" style="edgeStyle=none;rounded=0;jumpStyle=none;html=1;shadow=0;labelBackgroundColor=none;startArrow=none;startFill=0;endArrow=classic;endFill=1;jettySize=auto;orthogonalLoop=1;strokeWidth=3;fontFamily=Helvetica;fontSize=14;fontColor=#FFFFFF;spacing=5;entryX=0.5;entryY=0.033;entryDx=0;entryDy=0;entryPerimeter=0;exitX=0.5;exitY=0.971;exitDx=0;exitDy=0;exitPerimeter=0;strokeColor=#0070c0;" parent="1" source="9iynGiTtoXiNquHqY1pg-1808" target="9iynGiTtoXiNquHqY1pg-1809" edge="1">
          <mxGeometry relative="1" as="geometry">
            <mxPoint x="939" y="518" as="sourcePoint" />
            <mxPoint x="868" y="679" as="targetPoint" />
          </mxGeometry>
        </mxCell>
        <mxCell id="9iynGiTtoXiNquHqY1pg-1797" value="" style="edgeStyle=none;rounded=0;jumpStyle=none;html=1;shadow=0;labelBackgroundColor=none;startArrow=none;startFill=0;endArrow=classic;endFill=1;jettySize=auto;orthogonalLoop=1;strokeWidth=3;fontFamily=Helvetica;fontSize=14;fontColor=#FFFFFF;spacing=5;entryX=0.534;entryY=1.01;entryDx=0;entryDy=0;entryPerimeter=0;exitX=0.54;exitY=0.029;exitDx=0;exitDy=0;exitPerimeter=0;strokeColor=#0070c0;" parent="1" source="9iynGiTtoXiNquHqY1pg-1810" edge="1" target="9iynGiTtoXiNquHqY1pg-1807">
          <mxGeometry relative="1" as="geometry">
            <mxPoint x="850" y="556" as="sourcePoint" />
            <mxPoint x="880" y="541" as="targetPoint" />
          </mxGeometry>
        </mxCell>
        <mxCell id="9iynGiTtoXiNquHqY1pg-1802" value="" style="edgeStyle=none;rounded=1;jumpStyle=none;html=1;shadow=0;labelBackgroundColor=none;startArrow=none;startFill=0;jettySize=auto;orthogonalLoop=1;strokeWidth=3;fontFamily=Helvetica;fontSize=14;fontColor=#FFFFFF;spacing=5;fontStyle=1;fillColor=#b0e3e6;entryX=0.016;entryY=0.498;entryDx=0;entryDy=0;exitX=0.978;exitY=0.5;exitDx=0;exitDy=0;exitPerimeter=0;entryPerimeter=0;strokeColor=#EC7C31;" parent="1" source="9iynGiTtoXiNquHqY1pg-1804" target="9iynGiTtoXiNquHqY1pg-1805" edge="1">
          <mxGeometry relative="1" as="geometry">
            <mxPoint x="832" y="240" as="sourcePoint" />
            <mxPoint x="888" y="182" as="targetPoint" />
            <Array as="points" />
          </mxGeometry>
        </mxCell>
        <mxCell id="9iynGiTtoXiNquHqY1pg-1803" value="" style="edgeStyle=none;rounded=1;jumpStyle=none;html=1;shadow=0;labelBackgroundColor=none;startArrow=none;startFill=0;jettySize=auto;orthogonalLoop=1;strokeWidth=3;fontFamily=Helvetica;fontSize=14;fontColor=#FFFFFF;spacing=5;fontStyle=1;fillColor=#b0e3e6;entryX=0.5;entryY=0.028;entryDx=0;entryDy=0;entryPerimeter=0;exitX=0.503;exitY=0.978;exitDx=0;exitDy=0;exitPerimeter=0;strokeColor=#EC7C31;" parent="1" source="9iynGiTtoXiNquHqY1pg-1805" target="9iynGiTtoXiNquHqY1pg-1806" edge="1">
          <mxGeometry relative="1" as="geometry">
            <mxPoint x="935" y="190" as="sourcePoint" />
            <mxPoint x="890" y="150" as="targetPoint" />
            <Array as="points" />
          </mxGeometry>
        </mxCell>
        <mxCell id="9iynGiTtoXiNquHqY1pg-1804" value="報表框架製作" style="rounded=1;whiteSpace=wrap;html=1;shadow=0;labelBackgroundColor=none;strokeColor=none;strokeWidth=3;fontFamily=Helvetica;fontSize=16;fontColor=#FFFFFF;align=center;spacing=5;fontStyle=0;arcSize=7;perimeterSpacing=2;gradientDirection=east;fillColor=#ec7c31;gradientColor=#FF8635;" parent="1" vertex="1">
          <mxGeometry x="680" y="120" width="150" height="60" as="geometry" />
        </mxCell>
        <mxCell id="9iynGiTtoXiNquHqY1pg-1805" value="填報組件設定" style="rounded=1;whiteSpace=wrap;html=1;shadow=0;labelBackgroundColor=none;strokeColor=none;strokeWidth=3;fontFamily=Helvetica;fontSize=16;fontColor=#FFFFFF;align=center;spacing=5;fontStyle=0;arcSize=7;perimeterSpacing=2;gradientDirection=east;fillColor=#ec7c31;gradientColor=#FF8635;" parent="1" vertex="1">
          <mxGeometry x="860" y="120" width="150" height="60" as="geometry" />
        </mxCell>
        <mxCell id="9iynGiTtoXiNquHqY1pg-1806" value="填報屬性設定" style="rounded=1;whiteSpace=wrap;html=1;shadow=0;labelBackgroundColor=none;strokeColor=none;strokeWidth=3;fontFamily=Helvetica;fontSize=16;fontColor=#FFFFFF;align=center;spacing=5;fontStyle=0;arcSize=7;perimeterSpacing=2;gradientDirection=east;fillColor=#ec7c31;gradientColor=#FF8635;" parent="1" vertex="1">
          <mxGeometry x="860" y="210" width="150" height="60" as="geometry" />
        </mxCell>
        <mxCell id="9iynGiTtoXiNquHqY1pg-1807" value="圖表資料設定" style="rounded=1;whiteSpace=wrap;html=1;shadow=0;labelBackgroundColor=none;strokeColor=none;strokeWidth=3;fontFamily=Helvetica;fontSize=16;fontColor=#FFFFFF;align=center;spacing=5;arcSize=7;perimeterSpacing=2;gradientColor=#64BBE2;gradientDirection=east;fillColor=#0070c0;" parent="1" vertex="1">
          <mxGeometry x="680" y="486" width="150" height="60" as="geometry" />
        </mxCell>
        <mxCell id="9iynGiTtoXiNquHqY1pg-1808" value="控件&amp;amp;圖表聯動設定" style="rounded=1;whiteSpace=wrap;html=1;shadow=0;labelBackgroundColor=none;strokeColor=none;strokeWidth=3;fontFamily=Helvetica;fontSize=16;fontColor=#FFFFFF;align=center;spacing=5;arcSize=7;perimeterSpacing=2;gradientColor=#64BBE2;gradientDirection=east;fillColor=#0070c0;" parent="1" vertex="1">
          <mxGeometry x="860" y="486" width="150" height="60" as="geometry" />
        </mxCell>
        <mxCell id="9iynGiTtoXiNquHqY1pg-1809" value="報表分欄" style="rounded=1;whiteSpace=wrap;html=1;shadow=0;labelBackgroundColor=none;strokeColor=none;strokeWidth=3;fontFamily=Helvetica;fontSize=16;fontColor=#FFFFFF;align=center;spacing=5;arcSize=7;perimeterSpacing=2;gradientColor=#64BBE2;gradientDirection=east;fillColor=#0070c0;" parent="1" vertex="1">
          <mxGeometry x="860" y="581" width="150" height="60" as="geometry" />
        </mxCell>
        <mxCell id="9iynGiTtoXiNquHqY1pg-1810" value="整體框架排版" style="rounded=1;whiteSpace=wrap;html=1;shadow=0;labelBackgroundColor=none;strokeColor=none;strokeWidth=3;fontFamily=Helvetica;fontSize=16;fontColor=#FFFFFF;align=center;spacing=5;arcSize=7;perimeterSpacing=2;gradientDirection=east;gradientColor=#64BBE2;fillColor=#0070c0;" parent="1" vertex="1">
          <mxGeometry x="680" y="581" width="150" height="60" as="geometry" />
        </mxCell>
        <mxCell id="9iynGiTtoXiNquHqY1pg-1811" value="預先建立&lt;br&gt;SQLit空資料庫" style="rounded=1;whiteSpace=wrap;html=1;shadow=0;labelBackgroundColor=none;strokeColor=none;strokeWidth=3;fontFamily=Helvetica;fontSize=16;fontColor=#FFFFFF;align=center;spacing=5;fontStyle=0;arcSize=7;perimeterSpacing=2;gradientDirection=west;fillColor=#ec7c31;gradientColor=#FF8635;" parent="1" vertex="1">
          <mxGeometry x="310" y="210" width="150" height="60" as="geometry" />
        </mxCell>
        <mxCell id="9iynGiTtoXiNquHqY1pg-1812" value="" style="edgeStyle=none;rounded=1;jumpStyle=none;html=1;shadow=0;labelBackgroundColor=none;startArrow=none;startFill=0;jettySize=auto;orthogonalLoop=1;strokeWidth=3;fontFamily=Helvetica;fontSize=14;fontColor=#FFFFFF;spacing=5;fontStyle=1;fillColor=#b0e3e6;entryX=0.987;entryY=0.493;entryDx=0;entryDy=0;entryPerimeter=0;exitX=0.004;exitY=0.5;exitDx=0;exitDy=0;exitPerimeter=0;strokeColor=#EC7C31;" parent="1" source="1764" target="9iynGiTtoXiNquHqY1pg-1811" edge="1">
          <mxGeometry relative="1" as="geometry">
            <mxPoint x="490" y="240" as="sourcePoint" />
            <mxPoint x="690" y="250" as="targetPoint" />
            <Array as="points" />
          </mxGeometry>
        </mxCell>
        <mxCell id="96XnuaCD8h3pj_6csJ1h-1780" value="Excel匯入填報" style="rounded=1;whiteSpace=wrap;html=1;shadow=0;labelBackgroundColor=none;strokeColor=none;strokeWidth=3;fontFamily=Helvetica;fontSize=16;fontColor=#FFFFFF;align=center;spacing=5;fontStyle=0;arcSize=7;perimeterSpacing=2;gradientDirection=east;fillColor=#ec7c31;gradientColor=#FF8635;" vertex="1" parent="1">
          <mxGeometry x="950" y="300" width="150" height="60" as="geometry" />
        </mxCell>
        <mxCell id="96XnuaCD8h3pj_6csJ1h-1781" value="JSON資料集&lt;br&gt;填報" style="rounded=1;whiteSpace=wrap;html=1;shadow=0;labelBackgroundColor=none;strokeColor=none;strokeWidth=3;fontFamily=Helvetica;fontSize=16;fontColor=#FFFFFF;align=center;spacing=5;fontStyle=0;arcSize=7;perimeterSpacing=2;gradientDirection=east;fillColor=#ec7c31;gradientColor=#FF8635;" vertex="1" parent="1">
          <mxGeometry x="770" y="300" width="150" height="60" as="geometry" />
        </mxCell>
        <mxCell id="96XnuaCD8h3pj_6csJ1h-1782" value="" style="edgeStyle=none;rounded=1;jumpStyle=none;html=1;shadow=0;labelBackgroundColor=none;startArrow=none;startFill=0;jettySize=auto;orthogonalLoop=1;strokeWidth=3;fontFamily=Helvetica;fontSize=14;fontColor=#FFFFFF;spacing=5;fontStyle=1;fillColor=#b0e3e6;entryX=0.21;entryY=0.057;entryDx=0;entryDy=0;entryPerimeter=0;exitX=0.794;exitY=0.995;exitDx=0;exitDy=0;exitPerimeter=0;strokeColor=#EC7C31;" edge="1" parent="1" source="9iynGiTtoXiNquHqY1pg-1806" target="96XnuaCD8h3pj_6csJ1h-1780">
          <mxGeometry relative="1" as="geometry">
            <mxPoint x="980" y="300" as="sourcePoint" />
            <mxPoint x="980" y="340" as="targetPoint" />
            <Array as="points" />
          </mxGeometry>
        </mxCell>
        <mxCell id="96XnuaCD8h3pj_6csJ1h-1783" value="" style="edgeStyle=none;rounded=1;jumpStyle=none;html=1;shadow=0;labelBackgroundColor=none;startArrow=none;startFill=0;jettySize=auto;orthogonalLoop=1;strokeWidth=3;fontFamily=Helvetica;fontSize=14;fontColor=#FFFFFF;spacing=5;fontStyle=1;fillColor=#b0e3e6;entryX=0.797;entryY=0.057;entryDx=0;entryDy=0;entryPerimeter=0;exitX=0.212;exitY=1;exitDx=0;exitDy=0;exitPerimeter=0;strokeColor=#EC7C31;" edge="1" parent="1" source="9iynGiTtoXiNquHqY1pg-1806" target="96XnuaCD8h3pj_6csJ1h-1781">
          <mxGeometry relative="1" as="geometry">
            <mxPoint x="891" y="290" as="sourcePoint" />
            <mxPoint x="890" y="340" as="targetPoint" />
            <Array as="points" />
          </mxGeometry>
        </mxCell>
        <mxCell id="96XnuaCD8h3pj_6csJ1h-1784" value="CSS美化設定" style="rounded=1;whiteSpace=wrap;html=1;shadow=0;labelBackgroundColor=none;strokeColor=none;strokeWidth=3;fontFamily=Helvetica;fontSize=16;fontColor=#FFFFFF;align=center;spacing=5;arcSize=7;perimeterSpacing=2;gradientColor=#64BBE2;gradientDirection=east;fillColor=#0070c0;" vertex="1" parent="1">
          <mxGeometry x="860" y="676" width="150" height="60" as="geometry" />
        </mxCell>
        <mxCell id="96XnuaCD8h3pj_6csJ1h-1785" value="" style="edgeStyle=none;rounded=0;jumpStyle=none;html=1;shadow=0;labelBackgroundColor=none;startArrow=none;startFill=0;endArrow=classic;endFill=1;jettySize=auto;orthogonalLoop=1;strokeWidth=3;fontFamily=Helvetica;fontSize=14;fontColor=#FFFFFF;spacing=5;entryX=0.5;entryY=0.031;entryDx=0;entryDy=0;entryPerimeter=0;exitX=0.501;exitY=0.974;exitDx=0;exitDy=0;exitPerimeter=0;strokeColor=#0070c0;" edge="1" parent="1" source="9iynGiTtoXiNquHqY1pg-1809" target="96XnuaCD8h3pj_6csJ1h-1784">
          <mxGeometry relative="1" as="geometry">
            <mxPoint x="935" y="642" as="sourcePoint" />
            <mxPoint x="935" y="666" as="targetPoint" />
          </mxGeometry>
        </mxCell>
        <mxCell id="96XnuaCD8h3pj_6csJ1h-1787" value="APP設定" style="rounded=1;whiteSpace=wrap;html=1;shadow=0;labelBackgroundColor=none;strokeWidth=3;fontFamily=Helvetica;fontSize=18;fontColor=#FFFFFF;align=center;spacing=5;fontStyle=1;arcSize=7;perimeterSpacing=2;fillColor=#000000;" vertex="1" parent="1">
          <mxGeometry x="495" y="886" width="150" height="60" as="geometry" />
        </mxCell>
        <mxCell id="96XnuaCD8h3pj_6csJ1h-1788" value="APP安裝" style="rounded=1;whiteSpace=wrap;html=1;shadow=0;labelBackgroundColor=none;strokeColor=none;strokeWidth=3;fontFamily=Helvetica;fontSize=16;fontColor=#FFFFFF;align=center;spacing=5;fontStyle=0;arcSize=7;perimeterSpacing=2;gradientDirection=east;fillColor=#000000;gradientColor=#4D4D4D;" vertex="1" parent="1">
          <mxGeometry x="680" y="886" width="150" height="60" as="geometry" />
        </mxCell>
        <mxCell id="96XnuaCD8h3pj_6csJ1h-1792" value="報表超連結" style="rounded=1;whiteSpace=wrap;html=1;shadow=0;labelBackgroundColor=none;strokeColor=none;strokeWidth=3;fontFamily=Helvetica;fontSize=16;fontColor=#FFFFFF;align=center;spacing=5;arcSize=7;perimeterSpacing=2;gradientColor=#64BBE2;gradientDirection=east;fillColor=#0070c0;" vertex="1" parent="1">
          <mxGeometry x="1040" y="581" width="150" height="60" as="geometry" />
        </mxCell>
        <mxCell id="96XnuaCD8h3pj_6csJ1h-1795" value="" style="edgeStyle=none;rounded=0;jumpStyle=none;html=1;shadow=0;labelBackgroundColor=none;startArrow=none;startFill=0;endArrow=classic;endFill=1;jettySize=auto;orthogonalLoop=1;strokeWidth=3;fontFamily=Helvetica;fontSize=14;fontColor=#FFFFFF;spacing=5;entryX=0.5;entryY=0;entryDx=0;entryDy=0;strokeColor=#0070c0;" edge="1" parent="1" source="9iynGiTtoXiNquHqY1pg-1808" target="96XnuaCD8h3pj_6csJ1h-1792">
          <mxGeometry relative="1" as="geometry">
            <mxPoint x="1030.0020000000004" y="515.9060000000001" as="sourcePoint" />
            <mxPoint x="1040" y="516" as="targetPoint" />
            <Array as="points">
              <mxPoint x="1115" y="516" />
            </Array>
          </mxGeometry>
        </mxCell>
        <mxCell id="96XnuaCD8h3pj_6csJ1h-1809" value="模板製作" style="rounded=1;whiteSpace=wrap;html=1;shadow=0;labelBackgroundColor=none;strokeColor=none;strokeWidth=3;fontFamily=Helvetica;fontSize=16;fontColor=#FFFFFF;align=center;spacing=5;fontStyle=0;arcSize=7;perimeterSpacing=2;gradientDirection=west;fillColor=#7030a0;gradientColor=#9A42DB;" vertex="1" parent="1">
          <mxGeometry x="310" y="756" width="150" height="60" as="geometry" />
        </mxCell>
        <mxCell id="96XnuaCD8h3pj_6csJ1h-1814" value="" style="edgeStyle=none;rounded=1;jumpStyle=none;html=1;shadow=0;labelBackgroundColor=none;startArrow=none;startFill=0;jettySize=auto;orthogonalLoop=1;strokeWidth=3;fontFamily=Helvetica;fontSize=14;fontColor=#FFFFFF;spacing=5;fontStyle=1;fillColor=#b0e3e6;entryX=0.986;entryY=0.499;entryDx=0;entryDy=0;strokeColor=#7030a0;entryPerimeter=0;" edge="1" parent="1" target="96XnuaCD8h3pj_6csJ1h-1809">
          <mxGeometry relative="1" as="geometry">
            <mxPoint x="490" y="786" as="sourcePoint" />
            <mxPoint x="460" y="785.83" as="targetPoint" />
          </mxGeometry>
        </mxCell>
        <mxCell id="96XnuaCD8h3pj_6csJ1h-1815" value="" style="edgeStyle=none;rounded=1;jumpStyle=none;html=1;shadow=0;labelBackgroundColor=none;startArrow=none;startFill=0;jettySize=auto;orthogonalLoop=1;strokeWidth=3;fontFamily=Helvetica;fontSize=14;fontColor=#FFFFFF;spacing=5;fontStyle=1;fillColor=#b0e3e6;strokeColor=#7030A0;exitX=0.5;exitY=0.983;exitDx=0;exitDy=0;exitPerimeter=0;entryX=0.5;entryY=0.031;entryDx=0;entryDy=0;entryPerimeter=0;" edge="1" parent="1" source="1753" target="96XnuaCD8h3pj_6csJ1h-1787">
          <mxGeometry relative="1" as="geometry">
            <mxPoint x="569.88" y="826" as="sourcePoint" />
            <Array as="points" />
            <mxPoint x="570" y="866" as="targetPoint" />
          </mxGeometry>
        </mxCell>
        <mxCell id="96XnuaCD8h3pj_6csJ1h-1816" value="設定條件&lt;br&gt;告警通知" style="rounded=1;whiteSpace=wrap;html=1;shadow=0;labelBackgroundColor=none;strokeColor=none;strokeWidth=3;fontFamily=Helvetica;fontSize=16;fontColor=#FFFFFF;align=center;spacing=5;fontStyle=0;arcSize=7;perimeterSpacing=2;gradientDirection=west;fillColor=#00b050;gradientColor=#00E367;" vertex="1" parent="1">
          <mxGeometry x="127" y="466" width="150" height="60" as="geometry" />
        </mxCell>
        <mxCell id="96XnuaCD8h3pj_6csJ1h-1817" value="" style="edgeStyle=none;rounded=1;jumpStyle=none;html=1;shadow=0;labelBackgroundColor=none;startArrow=none;startFill=0;jettySize=auto;orthogonalLoop=1;strokeWidth=3;fontFamily=Helvetica;fontSize=14;fontColor=#FFFFFF;spacing=5;fontStyle=1;fillColor=#b0e3e6;exitX=0.018;exitY=0.969;exitDx=0;exitDy=0;entryX=1;entryY=0.5;entryDx=0;entryDy=0;strokeColor=#00b050;exitPerimeter=0;" edge="1" parent="1" target="96XnuaCD8h3pj_6csJ1h-1816" source="1776">
          <mxGeometry relative="1" as="geometry">
            <mxPoint x="308" y="546" as="sourcePoint" />
            <mxPoint x="180" y="596" as="targetPoint" />
            <Array as="points" />
          </mxGeometry>
        </mxCell>
        <mxCell id="96XnuaCD8h3pj_6csJ1h-1819" value="行動平台設定" style="rounded=1;whiteSpace=wrap;html=1;shadow=0;labelBackgroundColor=none;strokeColor=none;strokeWidth=3;fontFamily=Helvetica;fontSize=16;fontColor=#FFFFFF;align=center;spacing=5;fontStyle=0;arcSize=7;perimeterSpacing=2;gradientDirection=east;fillColor=#000000;gradientColor=#4D4D4D;" vertex="1" parent="1">
          <mxGeometry x="860" y="886" width="150" height="60" as="geometry" />
        </mxCell>
        <mxCell id="96XnuaCD8h3pj_6csJ1h-1820" value="" style="edgeStyle=none;rounded=0;jumpStyle=none;html=1;shadow=0;labelBackgroundColor=none;startArrow=none;startFill=0;endArrow=classic;endFill=1;jettySize=auto;orthogonalLoop=1;strokeWidth=3;fontFamily=Helvetica;fontSize=14;fontColor=#FFFFFF;spacing=5;entryX=0.018;entryY=0.497;entryDx=0;entryDy=0;entryPerimeter=0;exitX=1;exitY=0.5;exitDx=0;exitDy=0;" edge="1" parent="1" source="96XnuaCD8h3pj_6csJ1h-1787" target="96XnuaCD8h3pj_6csJ1h-1788">
          <mxGeometry relative="1" as="geometry">
            <mxPoint x="660" y="916" as="sourcePoint" />
            <mxPoint x="675.9999999999998" y="915.6600000000001" as="targetPoint" />
          </mxGeometry>
        </mxCell>
        <mxCell id="96XnuaCD8h3pj_6csJ1h-1821" value="" style="edgeStyle=none;rounded=0;jumpStyle=none;html=1;shadow=0;labelBackgroundColor=none;startArrow=none;startFill=0;endArrow=classic;endFill=1;jettySize=auto;orthogonalLoop=1;strokeWidth=3;fontFamily=Helvetica;fontSize=14;fontColor=#FFFFFF;spacing=5;entryX=0.007;entryY=0.496;entryDx=0;entryDy=0;entryPerimeter=0;exitX=0.989;exitY=0.504;exitDx=0;exitDy=0;exitPerimeter=0;" edge="1" parent="1" source="96XnuaCD8h3pj_6csJ1h-1788" target="96XnuaCD8h3pj_6csJ1h-1819">
          <mxGeometry relative="1" as="geometry">
            <mxPoint x="840" y="916" as="sourcePoint" />
            <mxPoint x="850" y="916" as="targetPoint" />
          </mxGeometry>
        </mxCell>
      </root>
    </mxGraphModel>
  </diagram>
</mxfile>
